<svg t="1575445646184" class="icon" viewBox="0 0 1027 1024" version="1.1" xmlns="http://www.w3.org/2000/svg" p-id="6848" width="48" height="48"><path d="M853.333333 962.56l34.133334 37.546667c30.72 30.72 81.92 30.72 116.053333 0 30.72-30.72 30.72-85.333333 0-116.053334L955.733333 843.093333c58.026667-105.813333 68.266667-211.626667 68.266667-310.613333 0-150.186667-75.093333-232.106667-211.626667-232.106667-153.6 0-266.24 150.186667-273.066666 157.013334-3.413333 3.413333-3.413333 6.826667-3.413334 6.82666599L27.306667 3.413333c-6.826667-6.826667-17.066667-6.826667-23.893334 0-3.413333 3.413333-3.413333 10.24-3.413333 13.653334 0 3.413333 0 6.826667 3.413333 10.24L474.453333 546.133333c-13.653333 17.066667-27.306667 40.96-40.96 64.853334-54.613333 85.333333-129.706667 204.8-201.386666 204.8-95.57333299 0-197.973333-85.333333-197.973334-327.68 0-10.24-6.826667-17.066667-17.066666-17.066667s-17.066667 6.826667-17.066667 17.066667c0 266.24 126.293333 361.813333 232.106667 361.813333 88.746667 0 167.253333-122.88 228.693333-221.866667 13.653333-20.48 27.306667-40.96 37.546667-58.02666599l331.093333 365.22666598C785.066667 972.8 740.69333301 989.866667 706.56 989.866667c-95.57333299 0-146.773333-37.546667-153.6-112.64 0-10.24-10.24-17.066667-20.48-13.653334-10.24 0-13.653333 6.826667-13.653333 17.066667l0 3.413333c10.24 92.15999999 78.50666699 143.36 187.733333 143.36C750.933333 1024 798.72 1003.52 853.333333 962.56z m78.506667-30.72c-6.826667 6.826667-17.066667 6.826667-23.893333 0l-10.24-10.24c3.413333-3.413333 6.826667-6.826667 13.653333-10.24 6.826667-6.826667 6.826667-17.066667 0-23.893333l20.48 20.48c6.826667 6.826667 6.826667 17.066667 0 23.893333zM570.026667 477.86666701s109.226667-143.36 245.76-143.36000001C959.146667 334.506667 989.86666699 443.733333 989.866667 532.48c0 92.15999999-6.826667 191.146667-61.44 286.72l-372.053334-334.506667c6.826667 0 10.24-3.413333 13.653334-6.82666599z m296.96 413.01333299c-3.413333-3.413333-3.413333-6.826667-3.41333401-13.653333s0-10.24 3.41333401-13.653334c6.826667-6.826667 17.066667-6.826667 23.893333-1e-8l20.48 23.89333401c-6.826667-6.826667-17.066667-6.826667-23.893333 0-3.413333 3.413333-6.826667 6.826667-13.653334 10.24l-6.826666-6.826667z" fill="#d4237a" p-id="6849"></path></svg>
